<svg xmlns="http://www.w3.org/2000/svg" xmlns:xlink="http://www.w3.org/1999/xlink" viewBox="0 0 350 258.5"><defs><style>.cls-1{fill:#656d78;}.cls-2{fill:#b3c5e1;}.cls-3{fill:#d9e2f0;}.cls-4{fill:#8ca8d1;}.cls-5{fill:#668bc2;}.cls-6{fill:#bdbdbd;}.cls-14,.cls-7{fill:#fff;}.cls-7{opacity:0.75;}.cls-8{fill:#494e57;}.cls-9{fill:url(#linear-gradient);}.cls-10{fill:url(#linear-gradient-2);}.cls-11{fill:#d9d9d9;}.cls-12{fill:#ccc;}.cls-13{fill:#13498f;}.cls-15{fill:#333;}</style><linearGradient id="linear-gradient" x1="819.81" y1="29.21" x2="874.12" y2="43.76" gradientTransform="translate(206.84 1039.55) rotate(-94.62)" gradientUnits="userSpaceOnUse"><stop offset="0" stop-color="#b2b6bb"/><stop offset="0.57" stop-color="#656d78"/><stop offset="0.93" stop-color="#494e57"/></linearGradient><linearGradient id="linear-gradient-2" x1="823.57" y1="42.76" x2="870.36" y2="30.22" xlink:href="#linear-gradient"/></defs><title>dialArtboard 13</title><g id="Arch"><path class="cls-1" d="M30.73,177.4l1.39-10.32,3.18.43a3.22,3.22,0,0,1,1.49.5,2.29,2.29,0,0,1,.8,1.06,2.83,2.83,0,0,1,.17,1.45,2.67,2.67,0,0,1-.48,1.23,2.38,2.38,0,0,1-1,.8,2.34,2.34,0,0,1,1,1.07,3,3,0,0,1,.21,1.65,3.51,3.51,0,0,1-.61,1.59,2.42,2.42,0,0,1-1.16.89,4,4,0,0,1-1.81.08ZM32,176.33l2.11.28a3.11,3.11,0,0,0,1.05,0,1.45,1.45,0,0,0,.81-.51,2,2,0,0,0,.39-1,2,2,0,0,0-.1-1,1.5,1.5,0,0,0-.57-.67,3,3,0,0,0-1.25-.36l-2-.27Zm.65-4.77,1.83.25a3.51,3.51,0,0,0,1,0,1.31,1.31,0,0,0,.74-.4,1.68,1.68,0,0,0,.36-.92,1.81,1.81,0,0,0-.09-.95A1.13,1.13,0,0,0,36,169a4.1,4.1,0,0,0-1.26-.32l-1.7-.22Z"/><path class="cls-1" d="M38.68,178.47l1.39-10.32,6.12.83L46,170.19l-5-.67-.43,3.15,4.68.63-.16,1.22-4.68-.63L40,177.4l5.2.7L45,179.32Z"/><path class="cls-1" d="M46.47,179.52l1.39-10.32,1.12.15-1.23,9.11,4.17.56-.16,1.22Z"/><path class="cls-1" d="M53.48,175.35a6.33,6.33,0,0,1,1.71-3.9,3.61,3.61,0,0,1,3.08-1,3.53,3.53,0,0,1,2,.91,4.29,4.29,0,0,1,1.21,2,7.09,7.09,0,0,1,.15,2.95,6.23,6.23,0,0,1-1.54,3.59,3.65,3.65,0,0,1-6-.85A6.17,6.17,0,0,1,53.48,175.35Zm1.15.17a4.73,4.73,0,0,0,.44,3.08,2.55,2.55,0,0,0,4.12.54,5,5,0,0,0,1.25-3,6.14,6.14,0,0,0-.11-2.44,2.86,2.86,0,0,0-.82-1.42,2.44,2.44,0,0,0-1.39-.68,2.58,2.58,0,0,0-2.23.77A5.43,5.43,0,0,0,54.63,175.52Z"/><path class="cls-1" d="M63.82,181.86,63,171.24l1.15.15.37,6.94c0,.72.07,1.44.08,2.16l.64-1.85,2.55-6.75,1.36.18.5,5.39a34.67,34.67,0,0,1,.16,3.74c.2-.66.44-1.39.73-2.19l2.22-6.45,1.13.15-3.72,10-1.08-.15-.72-8.1-.11-1.25c-.14.44-.28.83-.41,1.18L65,182Z"/><path class="cls-2" d="M237.59,53.62a144.33,144.33,0,0,0-125.15.14l19,37.38A101.36,101.36,0,0,1,218.57,91Z"/><path class="cls-3" d="M108.23,55.89C69.17,76.47,41,114.49,34.37,159.41l42,6.07a98.59,98.59,0,0,1,50.93-72.19Z"/><path class="cls-4" d="M241.8,55.74l-19,37.4A98.59,98.59,0,0,1,274,165.83l41.88-6.66C309.23,114.24,280.94,76.25,241.8,55.74Z"/><path class="cls-4" d="M237.59,53.62a144.33,144.33,0,0,0-125.15.14l6.44,12.66a129.86,129.86,0,0,1,112.27-.14Z"/><path class="cls-2" d="M108.23,55.89C69.17,76.47,41,114.49,34.37,159.41l14.22,2.05c5.91-40.26,31.12-74.37,66.09-92.9Z"/><path class="cls-5" d="M241.8,55.74l-6.44,12.67c35.1,18.5,60.42,52.66,66.37,93l14.18-2.25C309.23,114.24,280.94,76.25,241.8,55.74Z"/><path class="cls-5" d="M266.82,168.46a2.27,2.27,0,0,1-.36-4.52l58.37-8.88a2.26,2.26,0,0,1,2.61,1.89,2.29,2.29,0,0,1-1.9,2.61l-58.37,8.88Z"/><path class="cls-2" d="M83.18,168.46a2.27,2.27,0,0,0,.36-4.52l-58.37-8.88A2.26,2.26,0,0,0,22.56,157a2.29,2.29,0,0,0,1.9,2.61l58.37,8.88Z"/><path class="cls-1" d="M277.82,183.1l1.75-10.78,1.2-.18,5,9.8-1.28.19-1.44-3-3.56.52-.46,3.25Zm1.81-4.59,2.88-.42-1.3-2.73c-.4-.83-.7-1.52-.91-2.05a15.59,15.59,0,0,1-.17,2Z"/><path class="cls-1" d="M286.58,181.82l-1.51-10.31,3.18-.46a3.3,3.3,0,0,1,1.57.07,2.43,2.43,0,0,1,1.06.8,2.82,2.82,0,0,1,.56,1.34,2.68,2.68,0,0,1-.12,1.33,2.53,2.53,0,0,1-.74,1,2.29,2.29,0,0,1,1.29.74,2.87,2.87,0,0,1,.66,1.52,3.4,3.4,0,0,1-.15,1.7,2.34,2.34,0,0,1-.87,1.18,4,4,0,0,1-1.71.57Zm.24-6.14,1.83-.27a3.53,3.53,0,0,0,1-.25,1.27,1.27,0,0,0,.6-.59,1.7,1.7,0,0,0,.1-1,1.93,1.93,0,0,0-.35-.9,1.19,1.19,0,0,0-.65-.42,3.85,3.85,0,0,0-1.29,0l-1.7.25Zm.7,4.76,2.11-.31a3,3,0,0,0,1-.28,1.4,1.4,0,0,0,.65-.71,2.09,2.09,0,0,0,.09-1.08,1.89,1.89,0,0,0-.38-1,1.44,1.44,0,0,0-.73-.49,3.08,3.08,0,0,0-1.3,0l-2,.28Z"/><path class="cls-1" d="M293.44,175.68a6.39,6.39,0,0,1,.57-4.22,3.64,3.64,0,0,1,2.68-1.84,3.55,3.55,0,0,1,2.13.34,4.24,4.24,0,0,1,1.73,1.62,7,7,0,0,1,1,2.79,6.35,6.35,0,0,1-.49,3.89,3.65,3.65,0,0,1-6,.84A6.21,6.21,0,0,1,293.44,175.68Zm1.16-.15a4.74,4.74,0,0,0,1.27,2.84,2.56,2.56,0,0,0,4.11-.61,5.07,5.07,0,0,0,.37-3.25,6.42,6.42,0,0,0-.77-2.31,3,3,0,0,0-1.19-1.14,2.39,2.39,0,0,0-1.52-.27,2.56,2.56,0,0,0-1.93,1.36A5.34,5.34,0,0,0,294.6,175.53Z"/><path class="cls-1" d="M306.11,179l-4.79-9.83,1.21-.17,3.29,7.16c.26.56.49,1.1.7,1.62,0-.59.11-1.17.2-1.75l1.19-7.82,1.14-.17-1.8,10.79Z"/><path class="cls-1" d="M311.58,178.16l-1.51-10.31,6.11-.89.17,1.21-5,.73.46,3.15,4.68-.68.18,1.22-4.68.68.52,3.51,5.18-.76.18,1.21Z"/></g><g id="Dial_3" data-name="Dial 3"><path class="cls-6" d="M246.07,183.62a71.07,71.07,0,0,1-142.14,0Z"/><path class="cls-7" d="M159.52,207.89a32.25,32.25,0,0,1-9-47.91L175,7.83l25.87,151.91a32.25,32.25,0,0,1-41.34,48.15Z"/><polygon class="cls-1" points="151.65 183.76 174.97 10.66 199.81 184.62 174.65 184.17 151.65 183.76"/><polygon class="cls-8" points="174.65 184.17 174.97 10.66 199.81 184.62 174.65 184.17"/><path class="cls-9" d="M203,190.13a28.11,28.11,0,1,1-30.29-25.76A28.15,28.15,0,0,1,203,190.13Z"/><circle class="cls-10" cx="175" cy="192.39" r="24.22"/><circle class="cls-11" cx="175" cy="183.62" r="71.07"/><circle class="cls-12" cx="175" cy="183.62" r="67.89"/><path class="cls-13" d="M140.16,228.85h69.67a18.12,18.12,0,0,0,14.28-6.78,62.38,62.38,0,1,0-98.17.06A18.05,18.05,0,0,0,140.16,228.85Z"/><path class="cls-14" d="M134.33,225l3.59-11.34h1.31L143,225h-1.41l-1.08-3.44h-3.91l-1,3.44Zm2.67-4.66h3.16l-1-3.14c-.3-1-.52-1.75-.66-2.35A16.13,16.13,0,0,1,138,217Z"/><path class="cls-14" d="M150.09,213.67h1.23v6.55a9.2,9.2,0,0,1-.33,2.7,3.09,3.09,0,0,1-1.16,1.67,3.57,3.57,0,0,1-2.15.61,3.39,3.39,0,0,1-2.76-1.1,6.18,6.18,0,0,1-.91-3.88v-6.55h1.23v6.54a7.41,7.41,0,0,0,.24,2.23,2,2,0,0,0,.78,1.05,2.36,2.36,0,0,0,1.33.36,2.27,2.27,0,0,0,1.9-.75,4.88,4.88,0,0,0,.6-2.89Z"/><path class="cls-14" d="M155.77,225V215h-3.06v-1.33h7.37V215H157v10Z"/><path class="cls-14" d="M160.75,219.48A6.89,6.89,0,0,1,162,215a3.94,3.94,0,0,1,3.18-1.55,3.88,3.88,0,0,1,2.24.69,4.77,4.77,0,0,1,1.61,2,7.82,7.82,0,0,1,.59,3.16,6.8,6.8,0,0,1-1.15,4.11,4,4,0,0,1-6.61,0A6.68,6.68,0,0,1,160.75,219.48Zm1.27,0a5.08,5.08,0,0,0,.93,3.26,2.76,2.76,0,0,0,4.51,0,5.51,5.51,0,0,0,.92-3.44,7,7,0,0,0-.47-2.62,3.16,3.16,0,0,0-1.1-1.41,2.66,2.66,0,0,0-1.59-.53,2.8,2.8,0,0,0-2.3,1.16A5.85,5.85,0,0,0,162,219.5Z"/><path class="cls-14" d="M177.81,221l1.24.38a5.34,5.34,0,0,1-1.44,2.85,3.53,3.53,0,0,1-2.49.94,3.81,3.81,0,0,1-2.21-.63,4.51,4.51,0,0,1-1.5-2,8.48,8.48,0,0,1-.59-3.29,7.67,7.67,0,0,1,.59-3.17,4.48,4.48,0,0,1,1.58-2,4,4,0,0,1,2.23-.66,3.42,3.42,0,0,1,2.32.83,4.59,4.59,0,0,1,1.35,2.46l-1.21.35c-.41-1.57-1.24-2.36-2.48-2.36a2.71,2.71,0,0,0-1.61.48,3.13,3.13,0,0,0-1.09,1.48,6.85,6.85,0,0,0-.41,2.54,6.15,6.15,0,0,0,.82,3.5,2.55,2.55,0,0,0,2.18,1.17,2.4,2.4,0,0,0,1.74-.72A3.89,3.89,0,0,0,177.81,221Z"/><path class="cls-14" d="M180.58,225V213.67h1.23v4.65h4.83v-4.65h1.23V225h-1.23v-5.35h-4.83V225Z"/><path class="cls-14" d="M190,225V213.67h6.73V215h-5.5v3.47h5.15v1.34h-5.15v3.86h5.71V225Z"/><path class="cls-14" d="M205.22,221l1.24.38a5.27,5.27,0,0,1-1.43,2.85,3.57,3.57,0,0,1-2.5.94,3.81,3.81,0,0,1-2.21-.63,4.51,4.51,0,0,1-1.5-2,8.48,8.48,0,0,1-.58-3.29,7.67,7.67,0,0,1,.58-3.17,4.43,4.43,0,0,1,1.59-2,4,4,0,0,1,2.23-.66,3.4,3.4,0,0,1,2.31.83,4.53,4.53,0,0,1,1.36,2.46l-1.21.35c-.41-1.57-1.24-2.36-2.49-2.36a2.73,2.73,0,0,0-1.61.48,3.19,3.19,0,0,0-1.09,1.48,6.87,6.87,0,0,0-.4,2.54,6.07,6.07,0,0,0,.82,3.5,2.53,2.53,0,0,0,2.18,1.17,2.36,2.36,0,0,0,1.73-.72A3.82,3.82,0,0,0,205.22,221Z"/><path class="cls-14" d="M208,225V213.67h1.23v5.62l4.62-5.62h1.67l-3.9,4.6,4.07,6.74H214l-3.3-5.74-1.54,1.81V225Z"/><path class="cls-15" d="M152.49,240.37l1.17-.13a3.33,3.33,0,0,0,.42,1.46,2.33,2.33,0,0,0,.94.84,2.91,2.91,0,0,0,1.37.32,2.49,2.49,0,0,0,1.71-.54,1.79,1.79,0,0,0,.61-1.39,1.77,1.77,0,0,0-.22-.88,1.66,1.66,0,0,0-.67-.61,12.42,12.42,0,0,0-1.92-.68A6.8,6.8,0,0,1,154,238a2.83,2.83,0,0,1-.87-1,2.91,2.91,0,0,1-.31-1.37,3,3,0,0,1,.89-2.25,3.27,3.27,0,0,1,2.4-.87,3.75,3.75,0,0,1,1.81.41,2.9,2.9,0,0,1,1.21,1.17,3.81,3.81,0,0,1,.46,1.8l-1.18.11a2.49,2.49,0,0,0-.67-1.64,2.24,2.24,0,0,0-1.59-.53,2.37,2.37,0,0,0-1.6.47,1.53,1.53,0,0,0-.55,1.21,1.37,1.37,0,0,0,.41,1.06,4.7,4.7,0,0,0,1.81.77,13.48,13.48,0,0,1,1.93.66,3.11,3.11,0,0,1,1.28,1.14,3.2,3.2,0,0,1,.44,1.69,3.5,3.5,0,0,1-.46,1.78,3,3,0,0,1-1.24,1.21,3.94,3.94,0,0,1-1.89.42,3.69,3.69,0,0,1-2.75-1A4,4,0,0,1,152.49,240.37Z"/><path class="cls-15" d="M168.18,240l1.23.38a5.27,5.27,0,0,1-1.43,2.85,3.57,3.57,0,0,1-2.5.94,3.83,3.83,0,0,1-2.21-.63,4.51,4.51,0,0,1-1.5-2,8.48,8.48,0,0,1-.58-3.29,7.67,7.67,0,0,1,.58-3.17,4.43,4.43,0,0,1,1.59-2,4,4,0,0,1,2.23-.66,3.38,3.38,0,0,1,2.31.83,4.53,4.53,0,0,1,1.36,2.46l-1.21.35c-.41-1.57-1.24-2.36-2.49-2.36a2.73,2.73,0,0,0-1.61.48,3.26,3.26,0,0,0-1.09,1.48,6.89,6.89,0,0,0-.4,2.55,6.06,6.06,0,0,0,.82,3.49,2.53,2.53,0,0,0,2.18,1.17,2.4,2.4,0,0,0,1.74-.72A4,4,0,0,0,168.18,240Z"/><path class="cls-15" d="M170.6,238.49a6.89,6.89,0,0,1,1.28-4.46,3.94,3.94,0,0,1,3.18-1.55,3.88,3.88,0,0,1,2.24.69,4.77,4.77,0,0,1,1.61,2,7.82,7.82,0,0,1,.59,3.16,6.8,6.8,0,0,1-1.15,4.11,4,4,0,0,1-6.61,0A6.68,6.68,0,0,1,170.6,238.49Zm1.27,0a5.08,5.08,0,0,0,.93,3.26,2.76,2.76,0,0,0,4.51,0,5.51,5.51,0,0,0,.92-3.44,7,7,0,0,0-.47-2.62,3.16,3.16,0,0,0-1.1-1.41,2.66,2.66,0,0,0-1.59-.53,2.8,2.8,0,0,0-2.3,1.16A5.85,5.85,0,0,0,171.87,238.51Z"/><path class="cls-15" d="M181.05,244V232.68h4.13a4.36,4.36,0,0,1,1.9.31,2.47,2.47,0,0,1,1,1.06,3.48,3.48,0,0,1,.4,1.71,2.88,2.88,0,0,1-2.62,3.09,3.2,3.2,0,0,1,.79.63,8.15,8.15,0,0,1,1,1.45l1.62,3.09h-1.54l-1.24-2.36a16.58,16.58,0,0,0-1.09-1.87,2.13,2.13,0,0,0-.71-.64,2.26,2.26,0,0,0-1-.17h-1.43v5Zm1.23-6.34h2.65a3.15,3.15,0,0,0,1.31-.21,1.63,1.63,0,0,0,.72-.66,2,2,0,0,0,.26-1,1.83,1.83,0,0,0-.5-1.35,2.07,2.07,0,0,0-1.5-.49h-2.94Z"/><path class="cls-15" d="M190.46,244V232.68h6.72V234h-5.49v3.46h5.14v1.34h-5.14v3.86h5.71V244Z"/></g></svg>